Coordinates
version=1
nRows=14
nColumns=40
inDegrees=yes

Units are S.I. units (second, meters, Newtons, ...)
If the header above contains a line with 'inDegrees', this indicates whether rotational values are in degrees (yes) or radians (no).

endheader
time	pelvis_tilt	pelvis_list	pelvis_rotation	pelvis_tx	pelvis_ty	pelvis_tz	hip_flexion_r	hip_adduction_r	hip_rotation_r	knee_angle_r	knee_angle_r_beta	ankle_angle_r	subtalar_angle_r	mtp_angle_r	hip_flexion_l	hip_adduction_l	hip_rotation_l	knee_angle_l	knee_angle_l_beta	ankle_angle_l	subtalar_angle_l	mtp_angle_l	lumbar_extension	lumbar_bending	lumbar_rotation	arm_flex_r	arm_add_r	arm_rot_r	elbow_flex_r	pro_sup_r	wrist_flex_r	wrist_dev_r	arm_flex_l	arm_add_l	arm_rot_l	elbow_flex_l	pro_sup_l	wrist_flex_l	wrist_dev_l
      3.15000000	     18.13254990	     -7.74298888	     -4.58244021	     -0.33247313	      0.83821195	     -1.02871494	     39.47542259	      7.03769967	    -13.04004215	      4.92439552	      0.08594692	     -1.58453487	      0.00000000	      0.00000000	     24.91378698	    -11.86338789	    -10.07024530	     85.47685762	      1.49185260	     29.81537358	      0.00000000	      0.00000000	    -31.64098335	     -3.11869947	     11.60253312	     89.90743991	    -19.13708629	     31.44696693	     30.95616024	     84.13862749	      0.00000000	      0.00000000	     89.94556145	    -19.24062613	     36.79250482	     49.01281709	     81.46653805	      0.00000000	      0.00000000
      3.15500000	     18.00002341	     -7.83398371	     -4.65144413	     -0.33289094	      0.83789080	     -1.02852593	     39.70727373	      7.12103973	    -13.06672698	      4.99201011	      0.08712701	     -2.53948450	      0.00000000	      0.00000000	     25.12331410	    -12.02426231	    -10.06350070	     85.55437349	      1.49320551	     29.78357777	      0.00000000	      0.00000000	    -31.56044764	     -3.08343249	     11.70862527	     89.90782890	    -19.17995911	     31.39167147	     30.97399625	     84.02178746	      0.00000000	      0.00000000	     89.94574826	    -19.15276922	     36.67799514	     49.01633132	     81.45203829	      0.00000000	      0.00000000
      3.16000000	     17.95159043	     -7.84248968	     -4.63320672	     -0.33297660	      0.83758089	     -1.02843475	     39.78472194	      7.12264579	    -13.10330867	      4.93922686	      0.08620577	     -2.54639490	      0.00000000	      0.00000000	     25.21991629	    -12.05889551	    -10.03641616	     85.60757471	      1.49413404	     29.77498256	      0.00000000	      0.00000000	    -31.53525015	     -3.07855332	     11.66518104	     89.90820457	    -19.15797246	     31.52194889	     30.99593833	     82.80658896	      0.00000000	      0.00000000	     89.94591321	    -19.19666058	     36.77158768	     49.10319608	     80.30235103	      0.00000000	      0.00000000
      3.16500000	     17.87667619	     -7.83631728	     -4.63520885	     -0.33310904	      0.83718504	     -1.02840891	     39.93324635	      7.09728750	    -13.04351973	      4.98451186	      0.08699614	     -2.67446551	      0.00000000	      0.00000000	     25.35404142	    -12.08224226	    -10.03125381	     85.68717714	      1.49552337	     29.77186940	      0.00000000	      0.00000000	    -31.49018867	     -3.09568170	     11.67231212	     89.90825133	    -19.20019704	     31.22838589	     31.05786271	     84.07100392	      0.00000000	      0.00000000	     89.94613488	    -19.10303970	     36.59732461	     49.08129735	     81.17578559	      0.00000000	      0.00000000
      3.17000000	     17.86230901	     -7.82155895	     -4.55617046	     -0.33316482	      0.83694998	     -1.02843773	     40.02623958	      7.03017997	    -13.18651360	      5.08787774	      0.08880022	     -2.31774009	      0.00000000	      0.00000000	     25.41689171	    -12.03236393	     -9.94727265	     85.72225114	      1.49613552	     29.92713811	      0.00000000	      0.00000000	    -31.48992300	     -3.08535748	     11.57919515	     89.90832448	    -19.07565344	     31.15978103	     30.90429192	     82.12750315	      0.00000000	      0.00000000	     89.94644766	    -19.05105182	     36.67524373	     49.05330461	     79.57234135	      0.00000000	      0.00000000
      3.17500000	     17.92679936	     -7.75585284	     -4.54480849	     -0.33295930	      0.83672197	     -1.02833797	     39.91995125	      7.00966394	    -13.09417877	      4.93113958	      0.08606462	     -1.95668160	      0.00000000	      0.00000000	     25.34701557	    -12.00849939	    -10.02931993	     85.76460308	      1.49687471	     29.84737146	      0.00000000	      0.00000000	    -31.55835019	     -3.18125676	     11.52872820	     89.90855540	    -19.21029702	     31.13450168	     31.05032631	     84.33831210	      0.00000000	      0.00000000	     89.94645107	    -19.05685129	     36.53130091	     49.15334800	     80.32133579	      0.00000000	      0.00000000
      3.18000000	     17.82254172	     -7.87708108	     -4.56816763	     -0.33331237	      0.83649595	     -1.02816922	     40.09885512	      7.09680850	    -13.15609774	      4.98814862	      0.08705962	     -2.82940254	      0.00000000	      0.00000000	     25.52492126	    -12.19700891	     -9.99937318	     85.84282271	      1.49823990	     29.80920250	      0.00000000	      0.00000000	    -31.51312795	     -3.08786060	     11.59986628	     89.90876837	    -19.20707575	     30.99258005	     31.09034798	     84.36927144	      0.00000000	      0.00000000	     89.94655306	    -19.03560150	     36.46931482	     49.18897429	     80.52935440	      0.00000000	      0.00000000
      3.18500000	     17.82757121	     -7.86508057	     -4.54510473	     -0.33342025	      0.83631876	     -1.02814512	     40.13467411	      7.06980042	    -13.20631029	      5.00111468	      0.08728592	     -2.89124836	      0.00000000	      0.00000000	     25.54054520	    -12.18797511	     -9.98206059	     85.85863234	      1.49851583	     29.74917434	      0.00000000	      0.00000000	    -31.52432124	     -3.12373868	     11.62914547	     89.90887414	    -19.29271396	     31.03922927	     31.10029310	     83.99438858	      0.00000000	      0.00000000	     89.94677035	    -18.84033256	     36.24210923	     49.06907275	     81.46379948	      0.00000000	      0.00000000
      3.19000000	     17.82679250	     -7.83775396	     -4.58742806	     -0.33347996	      0.83613341	     -1.02805925	     40.18928314	      7.06678678	    -13.10283651	      5.06810375	      0.08845510	     -2.85095627	      0.00000000	      0.00000000	     25.54914788	    -12.20834598	    -10.07152899	     85.89130196	      1.49908602	     29.80836863	      0.00000000	      0.00000000	    -31.55672165	     -3.18093132	     11.63051753	     89.90932923	    -19.32834737	     31.02831739	     31.19899993	     83.98882551	      0.00000000	      0.00000000	     89.94686668	    -18.88699734	     36.29898350	     49.17255230	     81.10951153	      0.00000000	      0.00000000
      3.19500000	     17.82910142	     -7.84686068	     -4.58165237	     -0.33355521	      0.83592612	     -1.02803215	     40.22803187	      7.06924997	    -13.10350198	      5.10716436	      0.08913683	     -2.83097903	      0.00000000	      0.00000000	     25.56832574	    -12.24276933	    -10.09498217	     85.92046829	      1.49959507	     29.82427226	      0.00000000	      0.00000000	    -31.58546710	     -3.18620741	     11.62933916	     89.90944251	    -19.33187245	     30.91983061	     31.20685472	     84.00168199	      0.00000000	      0.00000000	     89.94701901	    -18.85009741	     36.22461639	     49.20194200	     81.43796705	      0.00000000	      0.00000000
      3.20000000	     17.79683526	     -7.81114034	     -4.56644298	     -0.33364928	      0.83573918	     -1.02806109	     40.29506957	      7.02180205	    -13.11384383	      5.13277954	      0.08958390	     -2.86260896	      0.00000000	      0.00000000	     25.63451176	    -12.21265786	    -10.09948647	     85.95837589	      1.50025668	     29.83995206	      0.00000000	      0.00000000	    -31.57855372	     -3.23146131	     11.59899105	     89.90920007	    -19.36716818	     30.72736900	     31.22941535	     84.61336844	      0.00000000	      0.00000000	     89.94712221	    -18.81804255	     36.31369521	     49.31341854	     78.96151320	      0.00000000	      0.00000000
      3.20500000	     17.86403184	     -7.72494305	     -4.47400277	     -0.33377495	      0.83549740	     -1.02821783	     40.19301733	      6.92032343	    -13.13043339	      4.98852094	      0.08706612	     -2.46066787	      0.00000000	      0.00000000	     25.60360307	    -12.10035538	    -10.10176905	     85.97690307	      1.50058004	     29.81642686	      0.00000000	      0.00000000	    -31.68020629	     -3.25623036	     11.29684389	     89.91093836	    -19.08674320	     31.94699812	     31.25947121	     74.64760119	      0.00000000	      0.00000000	     89.94674355	    -19.11681258	     36.73949370	     49.78467411	     69.41689704	      0.00000000	      0.00000000
      3.21000000	     17.73485372	     -7.81015742	     -4.49772341	     -0.33396883	      0.83523391	     -1.02812748	     40.44289936	      6.96327947	    -13.22519630	      5.21561277	      0.09102962	     -2.80984909	      0.00000000	      0.00000000	     25.79961684	    -12.22484315	    -10.04795109	     86.04849668	      1.50182958	     29.82853119	      0.00000000	      0.00000000	    -31.57826446	     -3.22845032	     11.55356623	     89.90986580	    -19.47200606	     30.77402442	     31.31423225	     83.92535941	      0.00000000	      0.00000000	     89.94736108	    -18.69971869	     36.06982784	     49.28414023	     81.49926908	      0.00000000	      0.00000000
      3.21500000	     17.67726862	     -7.83155748	     -4.48935940	     -0.33415944	      0.83502490	     -1.02808006	     40.53652812	      6.96551312	    -13.30745194	      5.24422250	      0.09152895	     -3.06136879	      0.00000000	      0.00000000	     25.90243542	    -12.27166917	    -10.03262155	     86.08442975	      1.50245673	     29.79652344	      0.00000000	      0.00000000	    -31.55756116	     -3.22571071	     11.56656505	     89.90979404	    -19.51468105	     30.66613371	     31.34046607	     83.89630998	      0.00000000	      0.00000000	     89.94749019	    -18.63539742	     35.98162051	     49.31118767	     81.59911587	      0.00000000	      0.00000000
